<mxfile host="app.diagrams.net" agent="Mozilla/5.0 (Windows NT 10.0; Win64; x64) AppleWebKit/537.36 (KHTML, like Gecko) Chrome/126.0.0.0 YaBrowser/24.7.0.0 Safari/537.36" version="24.7.16" pages="7">
  <diagram name="Шаблон" id="IybzlqZbHFN2dFelEo3a">
    <mxGraphModel dx="1434" dy="791" grid="1" gridSize="10" guides="1" tooltips="1" connect="1" arrows="1" fold="1" page="1" pageScale="1" pageWidth="827" pageHeight="1169" math="0" shadow="0">
      <root>
        <mxCell id="0" />
        <mxCell id="1" parent="0" />
        <mxCell id="2QYHxACbKhuSmDDCJu2K-1" value="" style="group" vertex="1" connectable="0" parent="1">
          <mxGeometry x="40" y="40" width="1080" height="760" as="geometry" />
        </mxCell>
        <mxCell id="2QYHxACbKhuSmDDCJu2K-2" value="" style="rounded=0;whiteSpace=wrap;html=1;fillColor=none;" vertex="1" parent="2QYHxACbKhuSmDDCJu2K-1">
          <mxGeometry width="1080" height="760" as="geometry" />
        </mxCell>
        <mxCell id="2QYHxACbKhuSmDDCJu2K-3" value="&nbsp; &nbsp; &nbsp; &nbsp; &nbsp; УЗЕЛ:" style="rounded=0;whiteSpace=wrap;html=1;fillColor=none;align=left;" vertex="1" parent="2QYHxACbKhuSmDDCJu2K-1">
          <mxGeometry y="720" width="240" height="40" as="geometry" />
        </mxCell>
        <mxCell id="2QYHxACbKhuSmDDCJu2K-4" value="&nbsp; &nbsp; &nbsp; &nbsp; &nbsp; НОМЕР:" style="rounded=0;whiteSpace=wrap;html=1;fillColor=none;align=left;" vertex="1" parent="2QYHxACbKhuSmDDCJu2K-1">
          <mxGeometry x="840" y="720" width="240" height="40" as="geometry" />
        </mxCell>
        <mxCell id="2QYHxACbKhuSmDDCJu2K-5" value="&nbsp; &nbsp; &nbsp; &nbsp; &nbsp; ЗАГОЛОВОК:&nbsp;" style="rounded=0;whiteSpace=wrap;html=1;fillColor=none;align=left;" vertex="1" parent="2QYHxACbKhuSmDDCJu2K-1">
          <mxGeometry x="240" y="720" width="600" height="40" as="geometry" />
        </mxCell>
        <!-- إدخال الخطوات الأساسية للعملية هنا -->
        <mxCell id="1" value="Прием заявки" style="rounded=0;whiteSpace=wrap;html=1;fillColor=none;" vertex="1" parent="0">
          <mxGeometry x="80" y="80" width="160" height="80" as="geometry" />
        </mxCell>
        <mxCell id="2" value="Оформление заявки" style="rounded=0;whiteSpace=wrap;html=1;fillColor=none;" vertex="1" parent="0">
          <mxGeometry x="280" y="80" width="160" height="80" as="geometry" />
        </mxCell>
        <mxCell id="3" value="Посещение стоматолога" style="rounded=0;whiteSpace=wrap;html=1;fillColor=none;" vertex="1" parent="0">
          <mxGeometry x="480" y="80" width="160" height="80" as="geometry" />
        </mxCell>
        <mxCell id="4" value="Оказание услуг" style="rounded=0;whiteSpace=wrap;html=1;fillColor=none;" vertex="1" parent="0">
          <mxGeometry x="680" y="80" width="160" height="80" as="geometry" />
        </mxCell>
        <mxCell id="5" value="Оплата услуг" style="rounded=0;whiteSpace=wrap;html=1;fillColor=none;" vertex="1" parent="0">
          <mxGeometry x="880" y="80" width="160" height="80" as="geometry" />
        </mxCell>
      </root>
    </mxGraphModel>
  </diagram>
  <diagram name="Контекстная диаграмма" id="UMIMRDNENf-Bqua0UwH5">
    <mxGraphModel dx="1434" dy="907" grid="1" gridSize="10" guides="1" tooltips="1" connect="1" arrows="1" fold="1" page="1" pageScale="1" pageWidth="1169" pageHeight="827" math="0" shadow="0">
      <root>
        <mxCell id="0" />
        <mxCell id="1" parent="0" />
        <mxCell id="038dqTt5FfKCy4myiWJ8-3" value="" style="group" vertex="1" connectable="0" parent="1">
          <mxGeometry x="425" y="280" width="320" height="200" as="geometry" />
        </mxCell>
        <mxCell id="038dqTt5FfKCy4myiWJ8-1" value="НАИМЕНОВАНИЕ ФУНКЦИОНАЛЬНОГО БЛОКА" style="rounded=0;whiteSpace=wrap;html=1;fillColor=none;" vertex="1" parent="038dqTt5FfKCy4myiWJ8-3">
          <mxGeometry width="320" height="200" as="geometry" />
        </mxCell>
        <mxCell id="038dqTt5FfKCy4myiWJ8-2" value="А0" style="rounded=0;whiteSpace=wrap;html=1;fillColor=none;strokeColor=none;" vertex="1" parent="038dqTt5FfKCy4myiWJ8-3">
          <mxGeometry x="280" y="180" width="40" height="20" as="geometry" />
        </mxCell>
        <mxCell id="038dqTt5FfKCy4myiWJ8-4" value="" style="endArrow=classic;html=1;rounded=0;entryX=0;entryY=0.5;entryDx=0;entryDy=0;" edge="1" parent="1" target="038dqTt5FfKCy4myiWJ8-1">
          <mxGeometry width="50" height="50" relative="1" as="geometry">
            <mxPoint x="80" y="380" as="sourcePoint" />
            <mxPoint x="130" y="364" as="targetPoint" />
          </mxGeometry>
        </mxCell>
        <mxCell id="038dqTt5FfKCy4myiWJ8-7" value="I1&nbsp; &nbsp;Наименование" style="edgeLabel;html=1;align=left;verticalAlign=middle;resizable=0;points=[];labelBackgroundColor=none;" vertex="1" connectable="0" parent="038dqTt5FfKCy4myiWJ8-4">
          <mxGeometry x="-0.4145" y="-1" relative="1" as="geometry">
            <mxPoint x="-101" y="-15" as="offset" />
          </mxGeometry>
        </mxCell>
        <mxCell id="038dqTt5FfKCy4myiWJ8-5" value="" style="endArrow=classic;html=1;rounded=0;entryX=0;entryY=0.5;entryDx=0;entryDy=0;" edge="1" parent="1">
          <mxGeometry width="50" height="50" relative="1" as="geometry">
            <mxPoint x="745" y="380" as="sourcePoint" />
          <mxPoint x="1090" y="380" as="targetPoint" />
        </mxGeometry>
      </mxCell>
      <mxCell id="038dqTt5FfKCy4myiWJ8-9" value="<span style="text-align: left;">Наименование&nbsp; &nbsp;O1</span>" style="edgeLabel;html=1;align=center;verticalAlign=middle;resizable=0;points=[];labelBackgroundColor=none;" vertex="1" connectable="0" parent="038dqTt5FfKCy4myiWJ8-5">
        <mxGeometry x="0.1884" y="2" relative="1" as="geometry">
          <mxPoint x="80" y="-12" as="offset" />
        </mxGeometry>
      </mxCell>
      <mxCell id="038dqTt5FfKCy4myiWJ8-6" value="" style="endArrow=classic;html=1;rounded=0;entryX=0.5;entryY=0;entryDx=0;entryDy=0;" edge="1" parent="1" target="038dqTt5FfKCy4myiWJ8-1">
        <mxGeometry width="50" height="50" relative="1" as="geometry">
          <mxPoint x="585" y="80" as="sourcePoint" />
          <mxPoint x="590" y="80" as="targetPoint" />
        </mxGeometry>
      </mxCell>
      <mxCell id="038dqTt5FfKCy4myiWJ8-10" value="<span style="">C1</span><div style=""><span style="">Наименование</span></div>" style="edgeLabel;html=1;align=left;verticalAlign=middle;resizable=0;points=[];labelBackgroundColor=none;" vertex="1" connectable="0" parent="038dqTt5FfKCy4myiWJ8-6">
        <mxGeometry x="-0.3504" y="1" relative="1" as="geometry">
          <mxPoint x="1" y="-54" as="offset" />
        </mxGeometry>
      </mxCell>
      <mxCell id="038dqTt5FfKCy4myiWJ8-11" value="" style="endArrow=classic;html=1;rounded=0;" edge="1" parent="1">
        <mxGeometry width="50" height="50" relative="1" as="geometry">
          <mxPoint x="584" y="720" as="sourcePoint" />
          <mxPoint x="584" y="480" as="targetPoint" />
        </mxGeometry>
      </mxCell>
      <mxCell id="038dqTt5FfKCy4myiWJ8-12" value="<span style="background-color: initial;">Наименование</span><div>M<span style="background-color: initial;">1</span></div>" style="edgeLabel;html=1;align=left;verticalAlign=middle;resizable=0;points=[];labelBackgroundColor=none;" vertex="1" connectable="0" parent="038dqTt5FfKCy4myiWJ8-11">
        <mxGeometry x="-0.225" y="1" relative="1" as="geometry">
          <mxPoint x="4" y="80" as="offset" />
        </mxGeometry>
      </mxCell>
      <mxCell id="39WRiEuCp8FMeLNudJjA-1" value="ЦЕЛЬ:<div><br></div><div>ТОЧКА ЗРЕНИЯ:</div>" style="text;html=1;align=left;verticalAlign=middle;whiteSpace=wrap;rounded=0;" vertex="1" parent="1">
        <mxGeometry x="80" y="640" width="170" height="60" as="geometry" />
      </mxCell>
    </root>
  </mxGraphModel>
</diagram>
<diagram name="+ Контекстная диаграмма" id="08DEuaUpIBABcTLDWRKL">
  <mxGraphModel dx="1434" dy="780" grid="1" gridSize="10" guides="1" tooltips="1" connect="1" arrows="1" fold="1" page="1" pageScale="1" pageWidth="1169" pageHeight="827" math="0" shadow="0">
    <root>
      <mxCell id="0" />
      <mxCell id="1" parent="0" />
      <mxCell id="MbZ7LCAg9RLio9QXGVB3-1" value="" style="group" vertex="1" connectable="0" parent="1">
        <mxGeometry x="425" y="280" width="320" height="200" as="geometry" />
      </mxCell>
      <mxCell id="MbZ7LCAg9RLio9QXGVB3-2" value="НАИМЕНОВАНИЕ ФУНКЦИОНАЛЬНОГО БЛОКА" style="rounded=0;whiteSpace=wrap;html=1;fillColor=none;" vertex="1" parent="MbZ7LCAg9RLio9QXGVB3-1">
        <mxGeometry width="320" height="200" as="geometry" />
      </mxCell>
      <mxCell id="MbZ7LCAg9RLio9QXGVB3-3" value="А0" style="rounded=0;whiteSpace=wrap;html=1;fillColor=none;strokeColor=none;" vertex="1" parent="MbZ7LCAg9RLio9QXGVB3-1">
        <mxGeometry x="280" y="180" width="40" height="20" as="geometry" />
      </mxCell>
      <mxCell id="MbZ7LCAg9RLio9QXGVB3-4" value="" style="endArrow=classic;html=1;rounded=0;entryX=0;entryY=0.5;entryDx=0;entryDy=0;" edge="1" parent="1" target="MbZ7LCAg9RLio9QXGVB3-2">
        <mxGeometry width="50" height="50" relative="1" as="geometry">
          <mxPoint x="80" y="380" as="sourcePoint" />
          <mxPoint x="130" y="364" as="targetPoint" />
        </mxGeometry>
      </mxCell>
      <mxCell id="MbZ7LCAg9RLio9QXGVB3-5" value="I1&nbsp; &nbsp;Наименование" style="edgeLabel;html=1;align=left;verticalAlign=middle;resizable=0;points=[];labelBackgroundColor=none;" vertex="1" connectable="0" parent="MbZ7LCAg9RLio9QXGVB3-4">
        <mxGeometry x="-0.4145" y="-1" relative="1" as="geometry">
          <mxPoint x="-101" y="-15" as="offset" />
        </mxGeometry>
      </mxCell>
      <mxCell id="MbZ7LCAg9RLio9QXGVB3-6" value="" style="endArrow=classic;html=1;rounded=0;entryX=0;entryY=0.5;entryDx=0;entryDy=0;" edge="1" parent="1">
        <mxGeometry width="50" height="50" relative="1" as="geometry">
          <mxPoint x="745" y="380" as="sourcePoint" />
          <mxPoint x="1090" y="380" as="targetPoint" />
        </mxGeometry>
      </mxCell>
      <mxCell id="MbZ7LCAg9RLio9QXGVB3-7" value="<span style="text-align: left;">Наименование&nbsp; &nbsp;O1</span>" style="edgeLabel;html=1;align=center;verticalAlign=middle;resizable=0;points=[];labelBackgroundColor=none;" vertex="1" connectable="0" parent="MbZ7LCAg9RLio9QXGVB3-6">
        <mxGeometry x="0.1884" y="2" relative="1" as="geometry">
          <mxPoint x="80" y="-12" as="offset" />
        </mxGeometry>
      </mxCell>
      <mxCell id="MbZ7LCAg9RLio9QXGVB3-8" value="" style="endArrow=classic;html=1;rounded=0;entryX=0.5;entryY=0;entryDx=0;entryDy=0;" edge="1" parent="1" target="MbZ7LCAg9RLio9QXGVB3-2">
        <mxGeometry width="50" height="50" relative="1" as="geometry">
          <mxPoint x="585" y="80" as="sourcePoint" />
          <mxPoint x="590" y="80" as="targetPoint" />
        </mxGeometry>
      </mxCell>
      <mxCell id="MbZ7LCAg9RLio9QXGVB3-9" value="<span style="">C1</span><div style=""><span style="">Наименование</span></div>" style="edgeLabel;html=1;align=left;verticalAlign=middle;resizable=0;points=[];labelBackgroundColor=none;" vertex="1" connectable="0" parent="MbZ7LCAg9RLio9QXGVB3-8">
        <mxGeometry x="-0.3504" y="1" relative="1" as="geometry">
          <mxPoint x="1" y="-54" as="offset" />
        </mxGeometry>
      </mxCell>
      <mxCell id="MbZ7LCAg9RLio9QXGVB3-10" value="" style="endArrow=classic;html=1;rounded=0;" edge="1" parent="1">
        <mxGeometry width="50" height="50" relative="1" as="geometry">
          <mxPoint x="584" y="720" as="sourcePoint" />
          <mxPoint x="584" y="480" as="targetPoint" />
        </mxGeometry>
      </mxCell>
      <mxCell id="MbZ7LCAg9RLio9QXGVB3-11" value="<span style="background-color: initial;">Наименование</span><div>M<span style="background-color: initial;">1</span></div>" style="edgeLabel;html=1;align=left;verticalAlign=middle;resizable=0;points=[];labelBackgroundColor=none;" vertex="1" connectable="0" parent="MbZ7LCAg9RLio9QXGVB3-10">
        <mxGeometry x="-0.225" y="1" relative="1" as="geometry">
          <mxPoint x="4" y="80" as="offset" />
        </mxGeometry>
      </mxCell>
      <mxCell id="I9-ZpqJZsX5iGwskOAat-1" value="" style="group" vertex="1" connectable="0" parent="1">
        <mxGeometry x="40" y="40" width="1080" height="760" as="geometry" />
      </mxCell>
      <mxCell id="I9-ZpqJZsX5iGwskOAat-2" value="" style="rounded=0;whiteSpace=wrap;html=1;fillColor=none;" vertex="1" parent="I9-ZpqJZsX5iGwskOAat-1">
        <mxGeometry width="1080" height="760" as="geometry" />
      </mxCell>
      <mxCell id="I9-ZpqJZsX5iGwskOAat-3" value="&nbsp; &nbsp; &nbsp; &nbsp; &nbsp; УЗЕЛ: А-0" style="rounded=0;whiteSpace=wrap;html=1;fillColor=none;align=left;" vertex="1" parent="I9-ZpqJZsX5iGwskOAat-1">
        <mxGeometry y="720" width="240" height="40" as="geometry" />
      </mxCell>
      <mxCell id="I9-ZpqJZsX5iGwskOAat-4" value="&nbsp; &nbsp; &nbsp; &nbsp; &nbsp; НОМЕР:" style="rounded=0;whiteSpace=wrap;html=1;fillColor=none;align=left;" vertex="1" parent="I9-ZpqJZsX5iGwskOAat-1">
        <mxGeometry x="840" y="720" width="240" height="40" as="geometry" />
      </mxCell>
      <mxCell id="I9-ZpqJZsX5iGwskOAat-5" value="&nbsp; &nbsp; &nbsp; &nbsp; &nbsp; ЗАГОЛОВОК:&nbsp;" style="rounded=0;whiteSpace=wrap;html=1;fillColor=none;align=left;" vertex="1" parent="I9-ZpqJZsX5iGwskOAat-1">
        <mxGeometry x="240" y="720" width="600" height="40" as="geometry" />
      </mxCell>
    </root>
  </mxGraphModel>
</diagram>
<diagram name="Декомпозиция контекстной диаграммы" id="n75RVM5PLuZVNLdNRZst">
  <mxGraphModel dx="1434" dy="791" grid="1" gridSize="10" guides="1" tooltips="1" connect="1" arrows="1" fold="1" page="1" pageScale="1" pageWidth="1169" pageHeight="827" math="0" shadow="0">
    <root>
      <mxCell id="0" />
      <mxCell id="1" parent="0" />
      <mxCell id="X9ug5vf78N0e3taZu5N6-1" value="" style="group" parent="1" vertex="1" connectable="0">
        <mxGeometry x="200" y="200" width="160" height="80" as="geometry" />
      </mxCell>
      <mxCell id="Gqb1N6DCaAd0YkItLaql-1" value="НАИМЕНОВАНИЕ ФУНКЦИОНАЛЬНОГО БЛОКА" style="rounded=0;whiteSpace=wrap;html=1;fillColor=none;" parent="X9ug5vf78N0e3taZu5N6-1" vertex="1">
        <mxGeometry width="160" height="80" as="geometry" />
      </mxCell>
      <mxCell id="y_8dqHx9sgJRgRweyC_G-1" value="А1" style="rounded=0;whiteSpace=wrap;html=1;fillColor=none;strokeColor=none;" parent="X9ug5vf78N0e3taZu5N6-1" vertex="1">
        <mxGeometry x="120" y="60" width="40" height="20" as="geometry" />
      </mxCell>
      <mxCell id="bVYIdks3CJ9dfzGUnIWE-1" value="" style="endArrow=classic;html=1;rounded=0;" parent="X9ug5vf78N0e3taZu5N6-1" edge="1">
        <mxGeometry width="50" height="50" relative="1" as="geometry">
          <mxPoint x="-120" y="39.5" as="sourcePoint" />
          <mxPoint y="40" as="targetPoint" />
        </mxGeometry>
      </mxCell>
      <mxCell id="bVYIdks3CJ9dfzGUnIWE-2" value="I1&nbsp; &nbsp;Наименование" style="edgeLabel;html=1;align=left;verticalAlign=middle;resizable=0;points=[];labelBackgroundColor=none;" parent="bVYIdks3CJ9dfzGUnIWE-1" vertex="1" connectable="0">
        <mxGeometry x="-0.4145" y="-1" relative="1" as="geometry">
          <mxPoint x="-35" y="-11" as="offset" />
        </mxGeometry>
      </mxCell>
      <mxCell id="X9ug5vf78N0e3taZu5N6-2" value="" style="group" parent="1" vertex="1" connectable="0">
        <mxGeometry x="480" y="360" width="160" height="80" as="geometry" />
      </mxCell>
      <mxCell id="X9ug5vf78N0e3taZu5N6-3" value="НАИМЕНОВАНИЕ ФУНКЦИОНАЛЬНОГО БЛОКА" style="rounded=0;whiteSpace=wrap;html=1;fillColor=none;" parent="X9ug5vf78N0e3taZu5N6-2" vertex="1">
        <mxGeometry width="160" height="80" as="geometry" />
      </mxCell>
      <mxCell id="X9ug5vf78N0e3taZu5N6-4" value="А2" style="rounded=0;whiteSpace=wrap;html=1;fillColor=none;strokeColor=none;" parent="X9ug5vf78N0e3taZu5N6-2" vertex="1">
        <mxGeometry x="120" y="60" width="40" height="20" as="geometry" />
      </mxCell>
      <mxCell id="X9ug5vf78N0e3taZu5N6-5" value="" style="group" parent="1" vertex="1" connectable="0">
        <mxGeometry x="760" y="520" width="160" height="80" as="geometry" />
      </mxCell>
      <mxCell id="X9ug5vf78N0e3taZu5N6-6" value="НАИМЕНОВАНИЕ ФУНКЦИОНАЛЬНОГО БЛОКА" style="rounded=0;whiteSpace=wrap;html=1;fillColor=none;" parent="X9ug5vf78N0e3taZu5N6-5" vertex="1">
        <mxGeometry width="160" height="80" as="geometry" />
      </mxCell>
      <mxCell id="X9ug5vf78N0e3taZu5N6-7" value="А3" style="rounded=0;whiteSpace=wrap;html=1;fillColor=none;strokeColor=none;" parent="X9ug5vf78N0e3taZu5N6-5" vertex="1">
        <mxGeometry x="120" y="60" width="40" height="20" as="geometry" />
      </mxCell>
      <mxCell id="apbJUHxJ9SzDJEVNczc5-1" value="" style="endArrow=classic;html=1;rounded=0;exitX=1;exitY=0.5;exitDx=0;exitDy=0;" parent="X9ug5vf78N0e3taZu5N6-5" source="X9ug5vf78N0e3taZu5N6-6" edge="1">
        <mxGeometry width="50" height="50" relative="1" as="geometry">
          <mxPoint x="-32.5" y="39.5" as="sourcePoint" />
          <mxPoint x="310" y="40" as="targetPoint" />
        </mxGeometry>
      </mxCell>
      <mxCell id="apbJUHxJ9SzDJEVNczc5-2" value="<span style="text-align: left;">Наименование&nbsp; &nbsp;O1</span>" style="edgeLabel;html=1;align=center;verticalAlign=middle;resizable=0;points=[];labelBackgroundColor=none;" parent="apbJUHxJ9SzDJEVNczc5-1" vertex="1" connectable="0">
        <mxGeometry x="0.1884" y="2" relative="1" as="geometry">
          <mxPoint x="3" y="-8" as="offset" />
        </mxGeometry>
      </mxCell>
      <mxCell id="apbJUHxJ9SzDJEVNczc5-4" value="" style="endArrow=classic;html=1;rounded=1;exitX=1;exitY=0.5;exitDx=0;exitDy=0;entryX=0;entryY=0.25;entryDx=0;entryDy=0;curved=0;" parent="1" target="X9ug5vf78N0e3taZu5N6-6" edge="1">
        <mxGeometry width="50" height="50" relative="1" as="geometry">
          <mxPoint x="640" y="400" as="sourcePoint" />
          <mxPoint x="760" y="560" as="targetPoint" />
          <Array as="points">
            <mxPoint x="680" y="400" />
            <mxPoint x="680" y="540" />
          </Array>
        </mxGeometry>
      </mxCell>
      <mxCell id="apbJUHxJ9SzDJEVNczc5-10" value="<span style="">Наименование</span>" style="edgeLabel;html=1;align=left;verticalAlign=middle;resizable=0;points=[];labelBackgroundColor=none;" parent="apbJUHxJ9SzDJEVNczc5-4" vertex="1" connectable="0">
        <mxGeometry x="-0.2769" y="-1" relative="1" as="geometry">
          <mxPoint x="1" y="-4" as="offset" />
        </mxGeometry>
      </mxCell>
      <mxCell id="apbJUHxJ9SzDJEVNczc5-7" value="" style="group" parent="1" vertex="1" connectable="0">
        <mxGeometry x="360" y="240" width="40" height="340" as="geometry" />
      </mxCell>
      <mxCell id="apbJUHxJ9SzDJEVNczc5-3" value="" style="endArrow=classic;html=1;rounded=1;exitX=1;exitY=0.5;exitDx=0;exitDy=0;entryX=0;entryY=0.5;entryDx=0;entryDy=0;curved=0;" parent="apbJUHxJ9SzDJEVNczc5-7" source="Gqb1N6DCaAd0YkItLaql-1" target="X9ug5vf78N0e3taZu5N6-3" edge="1">
        <mxGeometry width="50" height="50" relative="1" as="geometry">
          <mxPoint x="200" y="250" as="sourcePoint" />
          <mxPoint x="250" y="200" as="targetPoint" />
          <Array as="points">
            <mxPoint x="40" />
            <mxPoint x="40" y="160" />
          </Array>
        </mxGeometry>
      </mxCell>
      <mxCell id="apbJUHxJ9SzDJEVNczc5-5" value="" style="endArrow=classic;html=1;rounded=1;entryX=0;entryY=0.75;entryDx=0;entryDy=0;curved=0;" parent="apbJUHxJ9SzDJEVNczc5-7" target="X9ug5vf78N0e3taZu5N6-6" edge="1">
        <mxGeometry width="50" height="50" relative="1" as="geometry">
          <mxPoint as="sourcePoint" />
          <mxPoint x="50" y="-50" as="targetPoint" />
          <Array as="points">
            <mxPoint x="40" />
            <mxPoint x="40" y="340" />
          </Array>
        </mxGeometry>
      </mxCell>
      <mxCell id="apbJUHxJ9SzDJEVNczc5-9" value="<span style="">Наименование</span>" style="edgeLabel;html=1;align=left;verticalAlign=middle;resizable=0;points=[];labelBackgroundColor=none;" parent="apbJUHxJ9SzDJEVNczc5-5" vertex="1" connectable="0">
        <mxGeometry x="-0.6622" y="2" relative="1" as="geometry">
          <mxPoint x="-2" y="-25" as="offset" />
        </mxGeometry>
      </mxCell>
      <mxCell id="8AvFGtJU8bKnv6zYoM7A-1" value="" style="endArrow=classic;html=1;rounded=1;curved=0;" parent="1" edge="1">
        <mxGeometry width="50" height="50" relative="1" as="geometry">
          <mxPoint x="640" y="400" as="sourcePoint" />
          <mxPoint x="1070" y="560" as="targetPoint" />
          <Array as="points">
            <mxPoint x="960" y="400" />
            <mxPoint x="960" y="560" />
          </Array>
        </mxGeometry>
      </mxCell>
      <mxCell id="8AvFGtJU8bKnv6zYoM7A-5" value="" style="group" parent="1" vertex="1" connectable="0">
        <mxGeometry x="280" y="440" width="560" height="280" as="geometry" />
      </mxCell>
      <mxCell id="8AvFGtJU8bKnv6zYoM7A-2" value="" style="endArrow=classic;html=1;rounded=0;entryX=0.5;entryY=1;entryDx=0;entryDy=0;" parent="8AvFGtJU8bKnv6zYoM7A-5" target="Gqb1N6DCaAd0YkItLaql-1" edge="1">
        <mxGeometry width="50" height="50" relative="1" as="geometry">
          <mxPoint y="280" as="sourcePoint" />
          <mxPoint x="50" y="230" as="targetPoint" />
        </mxGeometry>
      </mxCell>
      <mxCell id="8AvFGtJU8bKnv6zYoM7A-3" value="" style="endArrow=classic;html=1;rounded=1;entryX=0.5;entryY=1;entryDx=0;entryDy=0;curved=0;" parent="8AvFGtJU8bKnv6zYoM7A-5" target="X9ug5vf78N0e3taZu5N6-6" edge="1">
        <mxGeometry width="50" height="50" relative="1" as="geometry">
          <mxPoint y="280" as="sourcePoint" />
          <mxPoint x="50" y="230" as="targetPoint" />
          <Array as="points">
            <mxPoint y="240" />
            <mxPoint x="560" y="240" />
          </Array>
        </mxGeometry>
      </mxCell>
      <mxCell id="8AvFGtJU8bKnv6zYoM7A-4" value="" style="endArrow=classic;html=1;rounded=1;curved=0;" parent="8AvFGtJU8bKnv6zYoM7A-5" edge="1">
        <mxGeometry width="50" height="50" relative="1" as="geometry">
          <mxPoint y="280" as="sourcePoint" />
          <mxPoint x="280" as="targetPoint" />
          <Array as="points">
            <mxPoint y="240" />
            <mxPoint x="280" y="240" />
          </Array>
        </mxGeometry>
      </mxCell>
    </root>
  </mxGraphModel>
</diagram>
<diagram name="+ Декомпозиция контекстной диаграммы" id="X1TGpOtZ3A2I9p1_orhz">
  <mxGraphModel dx="1434" dy="791" grid="1" gridSize="10" guides="1" tooltips="1" connect="1" arrows="1" fold="1" page="1" pageScale="1" pageWidth="1169" pageHeight="827" math="0" shadow="0">
    <root>
      <mxCell id="GfETWDUQdOLbfIJSNu0w-0" />
      <mxCell id="GfETWDUQdOLbfIJSNu0w-1" parent="GfETWDUQdOLbfIJSNu0w-0" />
      <mxCell id="sNLbeK0_vGye2DdbQZGt-0" value="" style="group" vertex="1" connectable="0" parent="GfETWDUQdOLbfIJSNu0w-1">
        <mxGeometry x="200" y="200" width="160" height="80" as="geometry" />
      </mxCell>
      <mxCell id="sNLbeK0_vGye2DdbQZGt-1" value="НАИМЕНОВАНИЕ ФУНКЦИОНАЛЬНОГО БЛОКА" style="rounded=0;whiteSpace=wrap;html=1;fillColor=none;" vertex="1" parent="sNLbeK0_vGye2DdbQZGt-0">
        <mxGeometry width="160" height="80" as="geometry" />
      </mxCell>
      <mxCell id="sNLbeK0_vGye2DdbQZGt-2" value="А1" style="rounded=0;whiteSpace=wrap;html=1;fillColor=none;strokeColor=none;" vertex="1" parent="sNLbeK0_vGye2DdbQZGt-0">
        <mxGeometry x="120" y="60" width="40" height="20" as="geometry" />
      </mxCell>
      <mxCell id="sNLbeK0_vGye2DdbQZGt-3" value="" style="endArrow=classic;html=1;rounded=0;" edge="1" parent="sNLbeK0_vGye2DdbQZGt-0">
        <mxGeometry width="50" height="50" relative="1" as="geometry">
          <mxPoint x="-120" y="39.5" as="sourcePoint" />
          <mxPoint y="40" as="targetPoint" />
        </mxGeometry>
      </mxCell>
      <mxCell id="sNLbeK0_vGye2DdbQZGt-4" value="I1&nbsp; &nbsp;Наименование" style="edgeLabel;html=1;align=left;verticalAlign=middle;resizable=0;points=[];labelBackgroundColor=none;" vertex="1" connectable="0" parent="sNLbeK0_vGye2DdbQZGt-3">
        <mxGeometry x="-0.4145" y="-1" relative="1" as="geometry">
          <mxPoint x="-35" y="-11" as="offset" />
        </mxGeometry>
      </mxCell>
      <mxCell id="sNLbeK0_vGye2DdbQZGt-5" value="" style="group" vertex="1" connectable="0" parent="GfETWDUQdOLbfIJSNu0w-1">
        <mxGeometry x="480" y="360" width="160" height="80" as="geometry" />
      </mxCell>
      <mxCell id="sNLbeK0_vGye2DdbQZGt-6" value="НАИМЕНОВАНИЕ ФУНКЦИОНАЛЬНОГО БЛОКА" style="rounded=0;whiteSpace=wrap;html=1;fillColor=none;" vertex="1" parent="sNLbeK0_vGye2DdbQZGt-5">
        <mxGeometry width="160" height="80" as="geometry" />
      </mxCell>
      <mxCell id="sNLbeK0_vGye2DdbQZGt-7" value="А2" style="rounded=0;whiteSpace=wrap;html=1;fillColor=none;strokeColor=none;" vertex="1" parent="sNLbeK0_vGye2DdbQZGt-5">
        <mxGeometry x="120" y="60" width="40" height="20" as="geometry" />
      </mxCell>
      <mxCell id="sNLbeK0_vGye2DdbQZGt-8" value="" style="group" vertex="1" connectable="0" parent="GfETWDUQdOLbfIJSNu0w-1">
        <mxGeometry x="760" y="520" width="160" height="80" as="geometry" />
      </mxCell>
      <mxCell id="sNLbeK0_vGye2DdbQZGt-9" value="НАИМЕНОВАНИЕ ФУНКЦИОНАЛЬНОГО БЛОКА" style="rounded=0;whiteSpace=wrap;html=1;fillColor=none;" vertex="1" parent="sNLbeK0_vGye2DdbQZGt-8">
        <mxGeometry width="160" height="80" as="geometry" />
      </mxCell>
      <mxCell id="sNLbeK0_vGye2DdbQZGt-10" value="А3" style="rounded=0;whiteSpace=wrap;html=1;fillColor=none;strokeColor=none;" vertex="1" parent="sNLbeK0_vGye2DdbQZGt-8">
        <mxGeometry x="120" y="60" width="40" height="20" as="geometry" />
      </mxCell>
      <mxCell id="sNLbeK0_vGye2DdbQZGt-11" value="" style="endArrow=classic;html=1;rounded=0;exitX=1;exitY=0.5;exitDx=0;exitDy=0;" edge="1" parent="sNLbeK0_vGye2DdbQZGt-8" source="sNLbeK0_vGye2DdbQZGt-9">
        <mxGeometry width="50" height="50" relative="1" as="geometry">
          <mxPoint x="-32.5" y="39.5" as="sourcePoint" />
          <mxPoint x="310" y="40" as="targetPoint" />
        </mxGeometry>
      </mxCell>
      <mxCell id="sNLbeK0_vGye2DdbQZGt-12" value="<span style="text-align: left;">Наименование&nbsp; &nbsp;O1</span>" style="edgeLabel;html=1;align=center;verticalAlign=middle;resizable=0;points=[];labelBackgroundColor=none;" vertex="1" connectable="0" parent="sNLbeK0_vGye2DdbQZGt-11">
        <mxGeometry x="0.1884" y="2" relative="1" as="geometry">
          <mxPoint x="3" y="-8" as="offset" />
        </mxGeometry>
      </mxCell>
      <mxCell id="sNLbeK0_vGye2DdbQZGt-13" value="" style="endArrow=classic;html=1;rounded=1;exitX=1;exitY=0.5;exitDx=0;exitDy=0;entryX=0;entryY=0.25;entryDx=0;entryDy=0;curved=0;" edge="1" parent="GfETWDUQdOLbfIJSNu0w-1" target="sNLbeK0_vGye2DdbQZGt-9">
        <mxGeometry width="50" height="50" relative="1" as="geometry">
          <mxPoint x="640" y="400" as="sourcePoint" />
          <mxPoint x="760" y="560" as="targetPoint" />
          <Array as="points">
            <mxPoint x="680" y="400" />
            <mxPoint x="680" y="540" />
          </Array>
        </mxGeometry>
      </mxCell>
      <mxCell id="sNLbeK0_vGye2DdbQZGt-14" value="<span style="">Наименование</span>" style="edgeLabel;html=1;align=left;verticalAlign=middle;resizable=0;points=[];labelBackgroundColor=none;" vertex="1" connectable="0" parent="sNLbeK0_vGye2DdbQZGt-13">
        <mxGeometry x="-0.2769" y="-1" relative="1" as="geometry">
          <mxPoint x="1" y="-4" as="offset" />
        </mxGeometry>
      </mxCell>
      <mxCell id="sNLbeK0_vGye2DdbQZGt-15" value="" style="group" vertex="1" connectable="0" parent="GfETWDUQdOLbfIJSNu0w-1">
        <mxGeometry x="360" y="240" width="40" height="340" as="geometry" />
      </mxCell>
      <mxCell id="sNLbeK0_vGye2DdbQZGt-16" value="" style="endArrow=classic;html=1;rounded=1;exitX=1;exitY=0.5;exitDx=0;exitDy=0;entryX=0;entryY=0.5;entryDx=0;entryDy=0;curved=0;" edge="1" parent="sNLbeK0_vGye2DdbQZGt-15" source="sNLbeK0_vGye2DdbQZGt-1" target="sNLbeK0_vGye2DdbQZGt-6">
        <mxGeometry width="50" height="50" relative="1" as="geometry">
          <mxPoint x="200" y="250" as="sourcePoint" />
          <mxPoint x="250" y="200" as="targetPoint" />
          <Array as="points">
            <mxPoint x="40" />
            <mxPoint x="40" y="160" />
          </Array>
        </mxGeometry>
      </mxCell>
      <mxCell id="sNLbeK0_vGye2DdbQZGt-17" value="" style="endArrow=classic;html=1;rounded=1;entryX=0;entryY=0.75;entryDx=0;entryDy=0;curved=0;" edge="1" parent="sNLbeK0_vGye2DdbQZGt-15" target="sNLbeK0_vGye2DdbQZGt-9">
        <mxGeometry width="50" height="50" relative="1" as="geometry">
          <mxPoint as="sourcePoint" />
          <mxPoint x="50" y="-50" as="targetPoint" />
          <Array as="points">
            <mxPoint x="40" />
            <mxPoint x="40" y="340" />
          </Array>
        </mxGeometry>
      </mxCell>
      <mxCell id="sNLbeK0_vGye2DdbQZGt-18" value="<span style="">Наименование</span>" style="edgeLabel;html=1;align=left;verticalAlign=middle;resizable=0;points=[];labelBackgroundColor=none;" vertex="1" connectable="0" parent="sNLbeK0_vGye2DdbQZGt-17">
        <mxGeometry x="-0.6622" y="2" relative="1" as="geometry">
          <mxPoint x="-2" y="-25" as="offset" />
        </mxGeometry>
      </mxCell>
      <mxCell id="sNLbeK0_vGye2DdbQZGt-19" value="" style="endArrow=classic;html=1;rounded=1;curved=0;" edge="1" parent="GfETWDUQdOLbfIJSNu0w-1">
        <mxGeometry width="50" height="50" relative="1" as="geometry">
          <mxPoint x="640" y="400" as="sourcePoint" />
          <mxPoint x="1070" y="560" as="targetPoint" />
          <Array as="points">
            <mxPoint x="960" y="400" />
            <mxPoint x="960" y="560" />
          </Array>
        </mxGeometry>
      </mxCell>
      <mxCell id="sNLbeK0_vGye2DdbQZGt-20" value="" style="group" vertex="1" connectable="0" parent="GfETWDUQdOLbfIJSNu0w-1">
        <mxGeometry x="280" y="440" width="560" height="280" as="geometry" />
      </mxCell>
      <mxCell id="sNLbeK0_vGye2DdbQZGt-21" value="" style="endArrow=classic;html=1;rounded=0;entryX=0.5;entryY=1;entryDx=0;entryDy=0;" edge="1" parent="sNLbeK0_vGye2DdbQZGt-20" target="sNLbeK0_vGye2DdbQZGt-1">
        <mxGeometry width="50" height="50" relative="1" as="geometry">
          <mxPoint y="280" as="sourcePoint" />
          <mxPoint x="50" y="230" as="targetPoint" />
        </mxGeometry>
      </mxCell>
      <mxCell id="sNLbeK0_vGye2DdbQZGt-22" value="" style="endArrow=classic;html=1;rounded=1;entryX=0;entryY=0.75;entryDx=0;entryDy=0;curved=0;" edge="1" parent="sNLbeK0_vGye2DdbQZGt-20" target="sNLbeK0_vGye2DdbQZGt-9">
        <mxGeometry width="50" height="50" relative="1" as="geometry">
          <mxPoint y="280" as="sourcePoint" />
          <mxPoint x="50" y="230" as="targetPoint" />
          <Array as="points">
          <mxPoint y="240" />
          <mxPoint x="560" y="240" />
        </Array>
      </mxCell>
      <mxCell id="sNLbeK0_vGye2DdbQZGt-23" value="" style="endArrow=classic;html=1;rounded=1;curved=0;" edge="1" parent="sNLbeK0_vGye2DdbQZGt-20">
        <mxGeometry width="50" height="50" relative="1" as="geometry">
          <mxPoint y="280" as="sourcePoint" />
          <mxPoint x="280" as="targetPoint" />
          <Array as="points">
            <mxPoint y="240" />
            <mxPoint x="280" y="240" />
          </Array>
        </mxGeometry>
      </mxCell>
      <mxCell id="sNLbeK0_vGye2DdbQZGt-24" value="<span style="text-align: left;">Наименование</span><div style="text-align: left;">M<span style="">1</span></div>" style="edgeLabel;html=1;align=center;verticalAlign=middle;resizable=0;points=[];labelBackgroundColor=none;" vertex="1" connectable="0" parent="sNLbeK0_vGye2DdbQZGt-23">
        <mxGeometry x="-0.928" y="3" relative="1" as="geometry">
          <mxPoint x="45" y="7" as="offset" />
        </mxGeometry>
      </mxCell>
      <mxCell id="sNLbeK0_vGye2DdbQZGt-25" value="" style="group" vertex="1" connectable="0" parent="GfETWDUQdOLbfIJSNu0w-1">
        <mxGeometry x="280" y="80" width="560" height="40" as="geometry" />
      </mxCell>
      <mxCell id="sNLbeK0_vGye2DdbQZGt-26" value="" style="endArrow=classic;html=1;rounded=0;entryX=0.5;entryY=0;entryDx=0;entryDy=0;" edge="1" parent="sNLbeK0_vGye2DdbQZGt-25" target="sNLbeK0_vGye2DdbQZGt-9">
        <mxGeometry width="50" height="50" relative="1" as="geometry">
          <mxPoint x="560" as="sourcePoint" />
          <mxPoint x="330" y="200" as="targetPoint" />
        </mxGeometry>
      </mxCell>
      <mxCell id="sNLbeK0_vGye2DdbQZGt-27" value="<span style="">C1</span><div style="">Наименование</div>" style="edgeLabel;html=1;align=left;verticalAlign=middle;resizable=0;points=[];labelBackgroundColor=none;" vertex="1" connectable="0" parent="sNLbeK0_vGye2DdbQZGt-26">
        <mxGeometry x="-0.7182" y="3" relative="1" as="geometry">
          <mxPoint x="-2" y="-51" as="offset" />
        </mxGeometry>
      </mxCell>
      <mxCell id="sNLbeK0_vGye2DdbQZGt-28" value="" style="endArrow=classic;html=1;rounded=1;entryX=0.5;entryY=0;entryDx=0;entryDy=0;curved=0;" edge="1" parent="sNLbeK0_vGye2DdbQZGt-25" target="sNLbeK0_vGye2DdbQZGt-6">
        <mxGeometry width="50" height="50" relative="1" as="geometry">
          <mxPoint x="560" as="sourcePoint" />
          <mxPoint x="330" y="200" as="targetPoint" />
          <Array as="points">
            <mxPoint x="560" y="40" />
            <mxPoint x="280" y="40" />
          </Array>
        </mxGeometry>
      </mxCell>
      <mxCell id="sNLbeK0_vGye2DdbQZGt-29" value="" style="endArrow=classic;html=1;rounded=1;entryX=0.5;entryY=0;entryDx=0;entryDy=0;curved=0;" edge="1" parent="sNLbeK0_vGye2DdbQZGt-25" target="sNLbeK0_vGye2DdbQZGt-1">
        <mxGeometry width="50" height="50" relative="1" as="geometry">
          <mxPoint x="560" as="sourcePoint" />
          <mxPoint x="330" y="200" as="targetPoint" />
          <Array as="points">
            <mxPoint x="560" y="40" />
            <mxPoint y="40" />
          </Array>
        </mxGeometry>
      </mxCell>
      <mxCell id="_n2_utFCVdZ43pnZKfWy-0" value="" style="group" vertex="1" connectable="0" parent="GfETWDUQdOLbfIJSNu0w-1">
        <mxGeometry x="40" y="40" width="1080" height="760" as="geometry" />
      </mxCell>
      <mxCell id="_n2_utFCVdZ43pnZKfWy-1" value="" style="rounded=0;whiteSpace=wrap;html=1;fillColor=none;" vertex="1" parent="_n2_utFCVdZ43pnZKfWy-0">
        <mxGeometry width="1080" height="760" as="geometry" />
      </mxCell>
      <mxCell id="_n2_utFCVdZ43pnZKfWy-2" value="&nbsp; &nbsp; &nbsp; &nbsp; &nbsp; УЗЕЛ:" style="rounded=0;whiteSpace=wrap;html=1;fillColor=none;align=left;" vertex="1" parent="_n2_utFCVdZ43pnZKfWy-0">
        <mxGeometry y="720" width="240" height="40" as="geometry" />
      </mxCell>
      <mxCell id="_n2_utFCVdZ43pnZKfWy-3" value="&nbsp; &nbsp; &nbsp; &nbsp; &nbsp; НОМЕР:" style="rounded=0;whiteSpace=wrap;html=1;fillColor=none;align=left;" vertex="1" parent="_n2_utFCVdZ43pnZKfWy-0">
        <mxGeometry x="840" y="720" width="240" height="40" as="geometry" />
      </mxCell>
      <mxCell id="_n2_utFCVdZ43pnZKfWy-4" value="&nbsp; &nbsp; &nbsp; &nbsp; &nbsp; ЗАГОЛОВОК:&nbsp;" style="rounded=0;whiteSpace=wrap;html=1;fillColor=none;align=left;" vertex="1" parent="_n2_utFCVdZ43pnZKfWy-0">
        <mxGeometry x="240" y="720" width="600" height="40" as="geometry" />
      </mxCell>
      <mxCell id="bf11wK1hd3I_yOk5hbgg-1" value="ЦЕЛЬ:<div><br></div><div>ТОЧКА ЗРЕНИЯ:</div>" style="text;html=1;align=left;verticalAlign=middle;whiteSpace=wrap;rounded=0;" vertex="1" parent="1">
        <mxGeometry x="80" y="640" width="170" height="60" as="geometry" />
      </mxCell>
    </root>
  </mxGraphModel>
</diagram>
<diagram name="Дерево узлов" id="k4BxQLNhrQhYPaBiUq83">
  <mxGraphModel dx="1434" dy="791" grid="1" gridSize="10" guides="1" tooltips="1" connect="1" arrows="1" fold="1" page="1" pageScale="1" pageWidth="1169" pageHeight="827" math="0" shadow="0">
    <root>
      <mxCell id="0" />
      <mxCell id="1" parent="0" />
      <mxCell id="OZe_jyF20vZ5rgSXn2SP-1" value="" style="group" vertex="1" connectable="0" parent="1">
        <mxGeometry x="480" y="120" width="160" height="80" as="geometry" />
      </mxCell>
      <mxCell id="OZe_jyF20vZ5rgSXn2SP-2" value="НАИМЕНОВАНИЕ ФУНКЦИОНАЛЬНОГО БЛОКА" style="rounded=0;whiteSpace=wrap;html=1;fillColor=none;" vertex="1" parent="OZe_jyF20vZ5rgSXn2SP-1">
        <mxGeometry width="160" height="80" as="geometry" />
      </mxCell>
      <mxCell id="OZe_jyF20vZ5rgSXn2SP-3" value="А0" style="rounded=0;whiteSpace=wrap;html=1;fillColor=none;strokeColor=none;" vertex="1" parent="OZe_jyF20vZ5rgSXn2SP-1">
        <mxGeometry x="120" y="60" width="40" height="20" as="geometry" />
      </mxCell>
      <mxCell id="OZe_jyF20vZ5rgSXn2SP-6" value="" style="group" vertex="1" connectable="0" parent="1">
        <mxGeometry x="240" y="280" width="160" height="80" as="geometry" />
      </mxCell>
      <mxCell id="OZe_jyF20vZ5rgSXn2SP-7" value="НАИМЕНОВАНИЕ ФУНКЦИОНАЛЬНОГО БЛОКА" style="rounded=0;whiteSpace=wrap;html=1;fillColor=none;" vertex="1" parent="OZe_jyF20vZ5rgSXn2SP-6">
        <mxGeometry width="160" height="80" as="geometry" />
      </mxCell>
      <mxCell id="OZe_jyF20vZ5rgSXn2SP-8" value="А1" style="rounded=0;whiteSpace=wrap;html=1;fillColor=none;strokeColor=none;" vertex="1" parent="OZe_jyF20vZ5rgSXn2SP-6">
        <mxGeometry x="120" y="60" width="40" height="20" as="geometry" />
      </mxCell>
      <mxCell id="OZe_jyF20vZ5rgSXn2SP-9" value="" style="group" vertex="1" connectable="0" parent="1">
        <mxGeometry x="480" y="280" width="160" height="80" as="geometry" />
      </mxCell>
      <mxCell id="OZe_jyF20vZ5rgSXn2SP-10" value="НАИМЕНОВАНИЕ ФУНКЦИОНАЛЬНОГО БЛОКА" style="rounded=0;whiteSpace=wrap;html=1;fillColor=none;" vertex="1" parent="OZe_jyF20vZ5rgSXn2SP-9">
        <mxGeometry width="160" height="80" as="geometry" />
      </mxCell>
      <mxCell id="OZe_jyF20vZ5rgSXn2SP-11" value="А2" style="rounded=0;whiteSpace=wrap;html=1;fillColor=none;strokeColor=none;" vertex="1" parent="OZe_jyF20vZ5rgSXn2SP-9">
        <mxGeometry x="120" y="60" width="40" height="20" as="geometry" />
      </mxCell>
      <mxCell id="OZe_jyF20vZ5rgSXn2SP-12" value="" style="group" vertex="1" connectable="0" parent="1">
        <mxGeometry x="720" y="280" width="160" height="80" as="geometry" />
      </mxCell>
      <mxCell id="OZe_jyF20vZ5rgSXn2SP-13" value="НАИМЕНОВАНИЕ ФУНКЦИОНАЛЬНОГО БЛОКА" style="rounded=0;whiteSpace=wrap;html=1;fillColor=none;" vertex="1" parent="OZe_jyF20vZ5rgSXn2SP-12">
        <mxGeometry width="160" height="80" as="geometry" />
      </mxCell>
      <mxCell id="OZe_jyF20vZ5rgSXn2SP-14" value="А3" style="rounded=0;whiteSpace=wrap;html=1;fillColor=none;strokeColor=none;" vertex="1" parent="OZe_jyF20vZ5rgSXn2SP-12">
        <mxGeometry x="120" y="60" width="40" height="20" as="geometry" />
      </mxCell>
      <mxCell id="OZe_jyF20vZ5rgSXn2SP-15" value="" style="group" vertex="1" connectable="0" parent="1">
        <mxGeometry x="480" y="440" width="160" height="80" as="geometry" />
      </mxCell>
      <mxCell id="OZe_jyF20vZ5rgSXn2SP-16" value="НАИМЕНОВАНИЕ ФУНКЦИОНАЛЬНОГО БЛОКА" style="rounded=0;whiteSpace=wrap;html=1;fillColor=none;" vertex="1" parent="OZe_jyF20vZ5rgSXn2SP-15">
        <mxGeometry width="160" height="80" as="geometry" />
      </mxCell>
      <mxCell id="OZe_jyF20vZ5rgSXn2SP-17" value="А22" style="rounded=0;whiteSpace=wrap;html=1;fillColor=none;strokeColor=none;" vertex="1" parent="OZe_jyF20vZ5rgSXn2SP-15">
        <mxGeometry x="120" y="60" width="40" height="20" as="geometry" />
      </mxCell>
      <mxCell id="OZe_jyF20vZ5rgSXn2SP-18" value="" style="group" vertex="1" connectable="0" parent="1">
        <mxGeometry x="680" y="440" width="160" height="80" as="geometry" />
      </mxCell>
      <mxCell id="OZe_jyF20vZ5rgSXn2SP-19" value="НАИМЕНОВАНИЕ ФУНКЦИОНАЛЬНОГО БЛОКА" style="rounded=0;whiteSpace=wrap;html=1;fillColor=none;" vertex="1" parent="OZe_jyF20vZ5rgSXn2SP-18">
        <mxGeometry width="160" height="80" as="geometry" />
      </mxCell>
      <mxCell id="OZe_jyF20vZ5rgSXn2SP-20" value="А23" style="rounded=0;whiteSpace=wrap;html=1;fillColor=none;strokeColor=none;" vertex="1" parent="OZe_jyF20vZ5rgSXn2SP-18">
        <mxGeometry x="120" y="60" width="40" height="20" as="geometry" />
      </mxCell>
      <mxCell id="OZe_jyF20vZ5rgSXn2SP-21" value="" style="group" vertex="1" connectable="0" parent="1">
        <mxGeometry x="280" y="440" width="160" height="80" as="geometry" />
      </mxCell>
      <mxCell id="OZe_jyF20vZ5rgSXn2SP-22" value="НАИМЕНОВАНИЕ ФУНКЦИОНАЛЬНОГО БЛОКА" style="rounded=0;whiteSpace=wrap;html=1;fillColor=none;" vertex="1" parent="OZe_jyF20vZ5rgSXn2SP-21">
        <mxGeometry width="160" height="80" as="geometry" />
      </mxCell>
      <mxCell id="OZe_jyF20vZ5rgSXn2SP-23" value="А21" style="rounded=0;whiteSpace=wrap;html=1;fillColor=none;strokeColor=none;" vertex="1" parent="OZe_jyF20vZ5rgSXn2SP-21">
        <mxGeometry x="120" y="60" width="40" height="20" as="geometry" />
      </mxCell>
      <mxCell id="OZe_jyF20vZ5rgSXn2SP-24" value="" style="endArrow=none;html=1;rounded=0;exitX=0.5;exitY=0;exitDx=0;exitDy=0;" edge="1" parent="1" source="OZe_jyF20vZ5rgSXn2SP-10">
        <mxGeometry width="50" height="50" relative="1" as="geometry">
          <mxPoint x="510" y="250" as="sourcePoint" />
          <mxPoint x="560" y="200" as="targetPoint" />
        </mxGeometry>
      </mxCell>
      <mxCell id="OZe_jyF20vZ5rgSXn2SP-25" value="" style="endArrow=none;html=1;rounded=0;exitX=0.5;exitY=0;exitDx=0;exitDy=0;" edge="1" parent="1" source="OZe_jyF20vZ5rgSXn2SP-7">
        <mxGeometry width="50" height="50" relative="1" as="geometry">
          <mxPoint x="510" y="250" as="sourcePoint" />
          <mxPoint x="560" y="200" as="targetPoint" />
        </mxGeometry>
      </mxCell>
      <mxCell id="OZe_jyF20vZ5rgSXn2SP-26" value="" style="endArrow=none;html=1;rounded=0;exitX=0.5;exitY=0;exitDx=0;exitDy=0;" edge="1" parent="1" source="OZe_jyF20vZ5rgSXn2SP-13">
        <mxGeometry width="50" height="50" relative="1" as="geometry">
          <mxPoint x="510" y="250" as="sourcePoint" />
          <mxPoint x="560" y="200" as="targetPoint" />
        </mxGeometry>
      </mxCell>
      <mxCell id="OZe_jyF20vZ5rgSXn2SP-27" value="" style="endArrow=none;html=1;rounded=0;exitX=0.5;exitY=0;exitDx=0;exitDy=0;" edge="1" parent="1" source="OZe_jyF20vZ5rgSXn2SP-16">
        <mxGeometry width="50" height="50" relative="1" as="geometry">
          <mxPoint x="510" y="410" as="sourcePoint" />
          <mxPoint x="560" y="360" as="targetPoint" />
        </mxGeometry>
      </mxCell>
      <mxCell id="OZe_jyF20vZ5rgSXn2SP-28" value="" style="endArrow=none;html=1;rounded=0;exitX=0.5;exitY=0;exitDx=0;exitDy=0;" edge="1" parent="1" source="OZe_jyF20vZ5rgSXn2SP-22">
        <mxGeometry width="50" height="50" relative="1" as="geometry">
          <mxPoint x="510" y="410" as="sourcePoint" />
          <mxPoint x="560" y="360" as="targetPoint" />
        </mxGeometry>
      </mxCell>
      <mxCell id="OZe_jyF20vZ5rgSXn2SP-29" value="" style="endArrow=none;html=1;rounded=0;exitX=0.5;exitY=0;exitDx=0;exitDy=0;" edge="1" parent="1" source="OZe_jyF20vZ5rgSXn2SP-19">
        <mxGeometry width="50" height="50" relative="1" as="geometry">
          <mxPoint x="510" y="410" as="sourcePoint" />
          <mxPoint x="560" y="360" as="targetPoint" />
        </mxGeometry>
      </mxCell>
    </root>
  </mxGraphModel>
</diagram>
<diagram name="+ Дерево узлов" id="LbtsJmlkdnc582zWQDRX">
  <mxGraphModel dx="1434" dy="791" grid="1" gridSize="10" guides="1" tooltips="1" connect="1" arrows="1" fold="1" page="1" pageScale="1" pageWidth="1169" pageHeight="827" math="0" shadow="0">
    <root>
      <mxCell id="0" />
      <mxCell id="1" parent="0" />
      <mxCell id="GQLLf-9vaYp7lY-whs9f-1" value="" style="group" vertex="1" connectable="0" parent="1">
        <mxGeometry x="480" y="120" width="160" height="80" as="geometry" />
      </mxCell>
      <mxCell id="GQLLf-9vaYp7lY-whs9f-2" value="НАИМЕНОВАНИЕ ФУНКЦИОНАЛЬНОГО БЛОКА" style="rounded=0;whiteSpace=wrap;html=1;fillColor=none;" vertex="1" parent="GQLLf-9vaYp7lY-whs9f-1">
        <mxGeometry width="160" height="80" as="geometry" />
      </mxCell>
      <mxCell id="GQLLf-9vaYp7lY-whs9f-3" value="А0" style="rounded=0;whiteSpace=wrap;html=1;fillColor=none;strokeColor=none;" vertex="1" parent="GQLLf-9vaYp7lY-whs9f-1">
        <mxGeometry x="120" y="60" width="40" height="20" as="geometry" />
      </mxCell>
      <mxCell id="GQLLf-9vaYp7lY-whs9f-4" value="" style="group" vertex="1" connectable="0" parent="1">
        <mxGeometry x="240" y="280" width="160" height="80" as="geometry" />
      </mxCell>
      <mxCell id="GQLLf-9vaYp7lY-whs9f-5" value="НАИМЕНОВАНИЕ ФУНКЦИОНАЛЬНОГО БЛОКА" style="rounded=0;whiteSpace=wrap;html=1;fillColor=none;" vertex="1" parent="GQLLf-9vaYp7lY-whs9f-4">
        <mxGeometry width="160" height="80" as="geometry" />
      </mxCell>
      <mxCell id="GQLLf-9vaYp7lY-whs9f-6" value="А1" style="rounded=0;whiteSpace=wrap;html=1;fillColor=none;strokeColor=none;" vertex="1" parent="GQLLf-9vaYp7lY-whs9f-4">
        <mxGeometry x="120" y="60" width="40" height="20" as="geometry" />
      </mxCell>
      <mxCell id="GQLLf-9vaYp7lY-whs9f-7" value="" style="group" vertex="1" connectable="0" parent="1">
        <mxGeometry x="480" y="280" width="160" height="80" as="geometry" />
      </mxCell>
      <mxCell id="GQLLf-9vaYp7lY-whs9f-8" value="НАИМЕНОВАНИЕ ФУНКЦИОНАЛЬНОГО БЛОКА" style="rounded=0;whiteSpace=wrap;html=1;fillColor=none;" vertex="1" parent="GQLLf-9vaYp7lY-whs9f-7">
        <mxGeometry width="160" height="80" as="geometry" />
      </mxCell>
      <mxCell id="GQLLf-9vaYp7lY-whs9f-9" value="А2" style="rounded=0;whiteSpace=wrap;html=1;fillColor=none;strokeColor=none;" vertex="1" parent="GQLLf-9vaYp7lY-whs9f-7">
        <mxGeometry x="120" y="60" width="40" height="20" as="geometry" />
      </mxCell>
      <mxCell id="GQLLf-9vaYp7lY-whs9f-10" value="" style="group" vertex="1" connectable="0" parent="1">
        <mxGeometry x="720" y="280" width="160" height="80" as="geometry" />
      </mxCell>
      <mxCell id="GQLLf-9vaYp7lY-whs9f-11" value="НАИМЕНОВАНИЕ ФУНКЦИОНАЛЬНОГО БЛОКА" style="rounded=0;whiteSpace=wrap;html=1;fillColor=none;" vertex="1" parent="GQLLf-9vaYp7lY-whs9f-10">
        <mxGeometry width="160" height="80" as="geometry" />
      </mxCell>
      <mxCell id="GQLLf-9vaYp7lY-whs9f-12" value="А3" style="rounded=0;whiteSpace=wrap;html=1;fillColor=none;strokeColor=none;" vertex="1" parent="GQLLf-9vaYp7lY-whs9f-10">
        <mxGeometry x="120" y="60" width="40" height="20" as="geometry" />
      </mxCell>
      <mxCell id="GQLLf-9vaYp7lY-whs9f-13" value="" style="group" vertex="1" connectable="0" parent="1">
        <mxGeometry x="480" y="440" width="160" height="80" as="geometry" />
      </mxCell>
      <mxCell id="GQLLf-9vaYp7lY-whs9f-14" value="НАИМЕНОВАНИЕ ФУНКЦИОНАЛЬНОГО БЛОКА" style="rounded=0;whiteSpace=wrap;html=1;fillColor=none;" vertex="1" parent="GQLLf-9vaYp7lY-whs9f-13">
        <mxGeometry width="160" height="80" as="geometry" />
      </mxCell>
      <mxCell id="GQLLf-9vaYp7lY-whs9f-15" value="А22" style="rounded=0;whiteSpace=wrap;html=1;fillColor=none;strokeColor=none;" vertex="1" parent="GQLLf-9vaYp7lY-whs9f-13">
        <mxGeometry x="120" y="60" width="40" height="20" as="geometry" />
      </mxCell>
      <mxCell id="GQLLf-9vaYp7lY-whs9f-16" value="" style="group" vertex="1" connectable="0" parent="1">
        <mxGeometry x="680" y="440" width="160" height="80" as="geometry" />
      </mxCell>
      <mxCell id="GQLLf-9vaYp7lY-whs9f-17" value="НАИМЕНОВАНИЕ ФУНКЦИОНАЛЬНОГО БЛОКА" style="rounded=0;whiteSpace=wrap;html=1;fillColor=none;" vertex="1" parent="GQLLf-9vaYp7lY-whs9f-16">
        <mxGeometry width="160" height="80" as="geometry" />
      </mxCell>
      <mxCell id="GQLLf-9vaYp7lY-whs9f-18" value="А23" style="rounded=0;whiteSpace=wrap;html=1;fillColor=none;strokeColor=none;" vertex="1" parent="GQLLf-9vaYp7lY-whs9f-16">
        <mxGeometry x="120" y="60" width="40" height="20" as="geometry" />
      </mxCell>
      <mxCell id="GQLLf-9vaYp7lY-whs9f-19" value="" style="group" vertex="1" connectable="0" parent="1">
        <mxGeometry x="280" y="440" width="160" height="80" as="geometry" />
      </mxCell>
      <mxCell id="GQLLf-9vaYp7lY-whs9f-20" value="НАИМЕНОВАНИЕ ФУНКЦИОНАЛЬНОГО БЛОКА" style="rounded=0;whiteSpace=wrap;html=1;fillColor=none;" vertex="1" parent="GQLLf-9vaYp7lY-whs9f-19">
        <mxGeometry width="160" height="80" as="geometry" />
      </mxCell>
      <mxCell id="GQLLf-9vaYp7lY-whs9f-21" value="А21" style="rounded=0;whiteSpace=wrap;html=1;fillColor=none;strokeColor=none;" vertex="1" parent="GQLLf-9vaYp7lY-whs9f-19">
        <mxGeometry x="120" y="60" width="40" height="20" as="geometry" />
      </mxCell>
      <mxCell id="GQLLf-9vaYp7lY-whs9f-22" value="" style="endArrow=none;html=1;rounded=0;exitX=0.5;exitY=0;exitDx=0;exitDy=0;" edge="1" parent="1" source="GQLLf-9vaYp7lY-whs9f-8">
        <mxGeometry width="50" height="50" relative="1" as="geometry">
          <mxPoint x="510" y="250" as="sourcePoint" />
          <mxPoint x="560" y="200" as="targetPoint" />
        </mxGeometry>
      </mxCell>
      <mxCell id="GQLLf-9vaYp7lY-whs9f-23" value="" style="endArrow=none;html=1;rounded=0;exitX=0.5;exitY=0;exitDx=0;exitDy=0;" edge="1" parent="1" source="GQLLf-9vaYp7lY-whs9f-5">
        <mxGeometry width="50" height="50" relative="1" as="geometry">
          <mxPoint x="510" y="250" as="sourcePoint" />
          <mxPoint x="560" y="200" as="targetPoint" />
        </mxGeometry>
      </mxCell>
      <mxCell id="GQLLf-9vaYp7lY-whs9f-24" value="" style="endArrow=none;html=1;rounded=0;exitX=0.5;exitY=0;exitDx=0;exitDy=0;" edge="1" parent="1" source="GQLLf-9vaYp7lY-whs9f-11">
        <mxGeometry width="50" height="50" relative="1" as="geometry">
          <mxPoint x="510" y="250" as="sourcePoint" />
          <mxPoint x="560" y="200" as="targetPoint" />
        </mxGeometry>
      </mxCell>
      <mxCell id="GQLLf-9vaYp7lY-whs9f-25" value="" style="endArrow=none;html=1;rounded=0;exitX=0.5;exitY=0;exitDx=0;exitDy=0;" edge="1" parent="1" source="GQLLf-9vaYp7lY-whs9f-14">
        <mxGeometry width="50" height="50" relative="1" as="geometry">
          <mxPoint x="510" y="410" as="sourcePoint" />
          <mxPoint x="560" y="360" as="targetPoint" />
        </mxGeometry>
      </mxCell>
      <mxCell id="GQLLf-9vaYp7lY-whs9f-26" value="" style="endArrow=none;html=1;rounded=0;exitX=0.5;exitY=0;exitDx=0;exitDy=0;" edge="1" parent="1" source="GQLLf-9vaYp7lY-whs9f-20">
        <mxGeometry width="50" height="50" relative="1" as="geometry">
          <mxPoint x="510" y="410" as="sourcePoint" />
          <mxPoint x="560" y="360" as="targetPoint" />
        </mxGeometry>
      </mxCell>
      <mxCell id="GQLLf-9vaYp7lY-whs9f-27" value="" style="endArrow=none;html=1;rounded=0;exitX=0.5;exitY=0;exitDx=0;exitDy=0;" edge="1" parent="1" source="GQLLf-9vaYp7lY-whs9f-17">
        <mxGeometry width="50" height="50" relative="1" as="geometry">
          <mxPoint x="510" y="410" as="sourcePoint" />
          <mxPoint x="560" y="360" as="targetPoint" />
        </mxGeometry>
      </mxCell>
      <mxCell id="Mtj8LFhR_pkzQlWPtRPs-1" value="" style="group" vertex="1" connectable="0" parent="1">
        <mxGeometry x="40" y="40" width="1080" height="760" as="geometry" />
      </mxCell>
      <mxCell id="Mtj8LFhR_pkzQlWPtRPs-2" value="" style="rounded=0;whiteSpace=wrap;html=1;fillColor=none;" vertex="1" parent="Mtj8LFhR_pkzQlWPtRPs-1">
        <mxGeometry width="1080" height="760" as="geometry" />
      </mxCell>
      <mxCell id="Mtj8LFhR_pkzQlWPtRPs-3" value="&nbsp; &nbsp; &nbsp; &nbsp; &nbsp; УЗЕЛ:" style="rounded=0;whiteSpace=wrap;html=1;fillColor=none;align=left;" vertex="1" parent="Mtj8LFhR_pkzQlWPtRPs-1">
        <mxGeometry y="720" width="240" height="40" as="geometry" />
      </mxCell>
      <mxCell id="Mtj8LFhR_pkzQlWPtRPs-4" value="&nbsp; &nbsp; &nbsp; &nbsp; &nbsp; НОМЕР:" style="rounded=0;whiteSpace=wrap;html=1;fillColor=none;align=left;" vertex="1" parent="Mtj8LFhR_pkzQlWPtRPs-1">
        <mxGeometry x="840" y="720" width="240" height="40" as="geometry" />
      </mxCell>
      <mxCell id="Mtj8LFhR_pkzQlWPtRPs-5" value="&nbsp; &nbsp; &nbsp; &nbsp; &nbsp; ЗАГОЛОВОК:&nbsp;" style="rounded=0;whiteSpace=wrap;html=1;fillColor=none;align=left;" vertex="1" parent="Mtj8LFhR_pkzQlWPtRPs-1">
        <mxGeometry x="240" y="720" width="600" height="40" as="geometry" />
      </mxCell>
    </root>
  </mxGraphModel>
</diagram>
</mxfile>

